{
	"asset":{
		"generator":"Khronos glTF Blender I/O v4.3.47",
		"version":"2.0"
	},
	"scene":0,
	"scenes":[
		{
			"name":"Scene",
			"nodes":[
				0,
				1,
				2,
				3,
				4,
				5
			]
		}
	],
	"nodes":[
		{
			"mesh":0,
			"name":"Cube.296",
			"translation":[
				0.20675800740718842,
				0.7337148189544678,
				0.883760392665863
			]
		},
		{
			"mesh":1,
			"name":"Cube.390",
			"translation":[
				-0.022731315344572067,
				0.9621965289115906,
				-0.08424955606460571
			]
		},
		{
			"mesh":2,
			"name":"Cube.399",
			"translation":[
				-0.022731315344572067,
				0.9627101421356201,
				-0.08424955606460571
			]
		},
		{
			"mesh":3,
			"name":"Cube.400",
			"rotation":[
				0,
				0,
				-0.3826834559440613,
				0.9238795638084412
			],
			"scale":[
				0.7835279703140259,
				0.7835279703140259,
				1
			],
			"translation":[
				0.20675800740718842,
				1.2364081144332886,
				-0.08424955606460571
			]
		},
		{
			"mesh":4,
			"name":"Cube.417",
			"translation":[
				0.20675800740718842,
				0.7337148189544678,
				0.883760392665863
			]
		},
		{
			"mesh":5,
			"name":"Cube.389",
			"translation":[
				0.20675800740718842,
				1.0131434202194214,
				-0.08350606262683868
			]
		}
	],
	"materials":[
		{
			"doubleSided":true,
			"name":"Material.003",
			"normalTexture":{
				"index":0
			},
			"pbrMetallicRoughness":{
				"baseColorTexture":{
					"index":1
				},
				"metallicFactor":0,
				"metallicRoughnessTexture":{
					"index":2
				}
			}
		},
		{
			"doubleSided":true,
			"name":"Material.002",
			"normalTexture":{
				"index":3
			},
			"pbrMetallicRoughness":{
				"baseColorTexture":{
					"index":4
				},
				"metallicFactor":0,
				"metallicRoughnessTexture":{
					"index":5
				}
			}
		},
		{
			"doubleSided":true,
			"name":"Material.001",
			"normalTexture":{
				"index":6
			},
			"pbrMetallicRoughness":{
				"baseColorTexture":{
					"index":7
				},
				"metallicFactor":0,
				"metallicRoughnessTexture":{
					"index":8
				}
			}
		}
	],
	"meshes":[
		{
			"name":"Cube.028",
			"primitives":[
				{
					"attributes":{
						"POSITION":0,
						"NORMAL":1,
						"TEXCOORD_0":2
					},
					"indices":3,
					"material":0
				}
			]
		},
		{
			"name":"Cube.005",
			"primitives":[
				{
					"attributes":{
						"POSITION":4,
						"NORMAL":5,
						"TEXCOORD_0":6
					},
					"indices":7,
					"material":0
				}
			]
		},
		{
			"name":"Cube.012",
			"primitives":[
				{
					"attributes":{
						"POSITION":8,
						"NORMAL":9,
						"TEXCOORD_0":10
					},
					"indices":11,
					"material":1
				}
			]
		},
		{
			"name":"Cube.013",
			"primitives":[
				{
					"attributes":{
						"POSITION":12,
						"NORMAL":13,
						"TEXCOORD_0":14
					},
					"indices":15,
					"material":1
				}
			]
		},
		{
			"name":"Cube.023",
			"primitives":[
				{
					"attributes":{
						"POSITION":16,
						"NORMAL":17,
						"TEXCOORD_0":18
					},
					"indices":19,
					"material":1
				}
			]
		},
		{
			"name":"Cube.033",
			"primitives":[
				{
					"attributes":{
						"POSITION":20,
						"NORMAL":21,
						"TEXCOORD_0":22
					},
					"indices":23,
					"material":2
				}
			]
		}
	],
	"textures":[
		{
			"sampler":0,
			"source":0
		},
		{
			"sampler":0,
			"source":1
		},
		{
			"sampler":0,
			"source":2
		},
		{
			"sampler":0,
			"source":3
		},
		{
			"sampler":0,
			"source":4
		},
		{
			"sampler":0,
			"source":5
		},
		{
			"sampler":0,
			"source":6
		},
		{
			"sampler":0,
			"source":7
		},
		{
			"sampler":0,
			"source":8
		}
	],
	"images":[
		{
			"mimeType":"image/png",
			"name":"thatch_roof_angled_nor_gl_1k",
			"uri":"../textures/thatch_roof_angled_nor_gl_1k.png"
		},
		{
			"mimeType":"image/jpeg",
			"name":"thatch_roof_angled_diff_1k",
			"uri":"../textures/thatch_roof_angled_diff_1k.jpg"
		},
		{
			"mimeType":"image/png",
			"name":"thatch_roof_angled_rough_1k",
			"uri":"../textures/thatch_roof_angled_rough_1k.png"
		},
		{
			"mimeType":"image/png",
			"name":"worn_planks_nor_gl_1k",
			"uri":"../textures/worn_planks_nor_gl_1k.png"
		},
		{
			"mimeType":"image/jpeg",
			"name":"worn_planks_diff_1k",
			"uri":"../textures/worn_planks_diff_1k.jpg"
		},
		{
			"mimeType":"image/png",
			"name":"worn_planks_rough_1k",
			"uri":"../textures/worn_planks_rough_1k.png"
		},
		{
			"mimeType":"image/png",
			"name":"fabric_0024_normal_opengl_2k",
			"uri":"../textures/fabric_0024_normal_opengl_2k.png"
		},
		{
			"mimeType":"image/jpeg",
			"name":"fabric_0024_color_2k",
			"uri":"../textures/fabric_0024_color_2k.jpg"
		},
		{
			"mimeType":"image/png",
			"name":"fabric_0024_roughness_2k",
			"uri":"../textures/fabric_0024_roughness_2k.png"
		}
	],
	"accessors":[
		{
			"bufferView":0,
			"componentType":5126,
			"count":54,
			"max":[
				0.31462931632995605,
				0.06474173069000244,
				0.13735011219978333
			],
			"min":[
				-0.31462931632995605,
				-0.06308963149785995,
				-0.15403859317302704
			],
			"type":"VEC3"
		},
		{
			"bufferView":1,
			"componentType":5126,
			"count":54,
			"type":"VEC3"
		},
		{
			"bufferView":2,
			"componentType":5126,
			"count":54,
			"type":"VEC2"
		},
		{
			"bufferView":3,
			"componentType":5123,
			"count":108,
			"type":"SCALAR"
		},
		{
			"bufferView":4,
			"componentType":5126,
			"count":142,
			"max":[
				0.8007470369338989,
				0.2931351959705353,
				0.892018735408783
			],
			"min":[
				-0.8007470369338989,
				-0.2931351959705353,
				-0.892018735408783
			],
			"type":"VEC3"
		},
		{
			"bufferView":5,
			"componentType":5126,
			"count":142,
			"type":"VEC3"
		},
		{
			"bufferView":6,
			"componentType":5126,
			"count":142,
			"type":"VEC2"
		},
		{
			"bufferView":7,
			"componentType":5123,
			"count":324,
			"type":"SCALAR"
		},
		{
			"bufferView":8,
			"componentType":5126,
			"count":528,
			"max":[
				0.8238711953163147,
				0.320586621761322,
				0.9156091213226318
			],
			"min":[
				-0.8218441009521484,
				-0.32029470801353455,
				-0.9156091213226318
			],
			"type":"VEC3"
		},
		{
			"bufferView":9,
			"componentType":5126,
			"count":528,
			"type":"VEC3"
		},
		{
			"bufferView":10,
			"componentType":5126,
			"count":528,
			"type":"VEC2"
		},
		{
			"bufferView":11,
			"componentType":5123,
			"count":648,
			"type":"SCALAR"
		},
		{
			"bufferView":12,
			"componentType":5126,
			"count":104,
			"max":[
				0.0773363709449768,
				0.07733632624149323,
				0.9775638580322266
			],
			"min":[
				-0.07733629643917084,
				-0.07733634114265442,
				-0.9836528897285461
			],
			"type":"VEC3"
		},
		{
			"bufferView":13,
			"componentType":5126,
			"count":104,
			"type":"VEC3"
		},
		{
			"bufferView":14,
			"componentType":5126,
			"count":104,
			"type":"VEC2"
		},
		{
			"bufferView":15,
			"componentType":5123,
			"count":276,
			"type":"SCALAR"
		},
		{
			"bufferView":16,
			"componentType":5126,
			"count":152,
			"max":[
				0.3241864740848541,
				0.07315114885568619,
				0.14786306023597717
			],
			"min":[
				-0.3242669403553009,
				-0.07700447738170624,
				-0.15656612813472748
			],
			"type":"VEC3"
		},
		{
			"bufferView":17,
			"componentType":5126,
			"count":152,
			"type":"VEC3"
		},
		{
			"bufferView":18,
			"componentType":5126,
			"count":152,
			"type":"VEC2"
		},
		{
			"bufferView":19,
			"componentType":5123,
			"count":252,
			"type":"SCALAR"
		},
		{
			"bufferView":20,
			"componentType":5126,
			"count":34,
			"max":[
				0.41356194019317627,
				0.21468690037727356,
				0.8139715194702148
			],
			"min":[
				-0.41356194019317627,
				-0.21468687057495117,
				-0.8139715194702148
			],
			"type":"VEC3"
		},
		{
			"bufferView":21,
			"componentType":5126,
			"count":34,
			"type":"VEC3"
		},
		{
			"bufferView":22,
			"componentType":5126,
			"count":34,
			"type":"VEC2"
		},
		{
			"bufferView":23,
			"componentType":5123,
			"count":60,
			"type":"SCALAR"
		}
	],
	"bufferViews":[
		{
			"buffer":0,
			"byteLength":648,
			"byteOffset":0,
			"target":34962
		},
		{
			"buffer":0,
			"byteLength":648,
			"byteOffset":648,
			"target":34962
		},
		{
			"buffer":0,
			"byteLength":432,
			"byteOffset":1296,
			"target":34962
		},
		{
			"buffer":0,
			"byteLength":216,
			"byteOffset":1728,
			"target":34963
		},
		{
			"buffer":0,
			"byteLength":1704,
			"byteOffset":1944,
			"target":34962
		},
		{
			"buffer":0,
			"byteLength":1704,
			"byteOffset":3648,
			"target":34962
		},
		{
			"buffer":0,
			"byteLength":1136,
			"byteOffset":5352,
			"target":34962
		},
		{
			"buffer":0,
			"byteLength":648,
			"byteOffset":6488,
			"target":34963
		},
		{
			"buffer":0,
			"byteLength":6336,
			"byteOffset":7136,
			"target":34962
		},
		{
			"buffer":0,
			"byteLength":6336,
			"byteOffset":13472,
			"target":34962
		},
		{
			"buffer":0,
			"byteLength":4224,
			"byteOffset":19808,
			"target":34962
		},
		{
			"buffer":0,
			"byteLength":1296,
			"byteOffset":24032,
			"target":34963
		},
		{
			"buffer":0,
			"byteLength":1248,
			"byteOffset":25328,
			"target":34962
		},
		{
			"buffer":0,
			"byteLength":1248,
			"byteOffset":26576,
			"target":34962
		},
		{
			"buffer":0,
			"byteLength":832,
			"byteOffset":27824,
			"target":34962
		},
		{
			"buffer":0,
			"byteLength":552,
			"byteOffset":28656,
			"target":34963
		},
		{
			"buffer":0,
			"byteLength":1824,
			"byteOffset":29208,
			"target":34962
		},
		{
			"buffer":0,
			"byteLength":1824,
			"byteOffset":31032,
			"target":34962
		},
		{
			"buffer":0,
			"byteLength":1216,
			"byteOffset":32856,
			"target":34962
		},
		{
			"buffer":0,
			"byteLength":504,
			"byteOffset":34072,
			"target":34963
		},
		{
			"buffer":0,
			"byteLength":408,
			"byteOffset":34576,
			"target":34962
		},
		{
			"buffer":0,
			"byteLength":408,
			"byteOffset":34984,
			"target":34962
		},
		{
			"buffer":0,
			"byteLength":272,
			"byteOffset":35392,
			"target":34962
		},
		{
			"buffer":0,
			"byteLength":120,
			"byteOffset":35664,
			"target":34963
		}
	],
	"samplers":[
		{
			"magFilter":9729,
			"minFilter":9987
		}
	],
	"buffers":[
		{
			"byteLength":35784,
			"uri":"atap-rumah.bin"
		}
	]
}
