{
	"asset":{
		"generator":"Khronos glTF Blender I/O v4.3.47",
		"version":"2.0"
	},
	"extensionsUsed":[
		"KHR_materials_specular",
		"KHR_materials_ior"
	],
	"scene":0,
	"scenes":[
		{
			"name":"Scene",
			"nodes":[
				0
			]
		}
	],
	"nodes":[
		{
			"mesh":0,
			"name":"Plane",
			"scale":[
				2,
				1,
				2
			]
		}
	],
	"materials":[
		{
			"doubleSided":true,
			"extensions":{
				"KHR_materials_specular":{
					"specularFactor":0.013
				},
				"KHR_materials_ior":{
					"ior":1
				}
			},
			"name":"Material",
			"normalTexture":{
				"index":0
			},
			"pbrMetallicRoughness":{
				"baseColorTexture":{
					"index":1
				},
				"metallicFactor":0,
				"metallicRoughnessTexture":{
					"index":2
				}
			}
		}
	],
	"meshes":[
		{
			"name":"Plane",
			"primitives":[
				{
					"attributes":{
						"POSITION":0,
						"NORMAL":1,
						"TEXCOORD_0":2
					},
					"indices":3,
					"material":0
				}
			]
		}
	],
	"textures":[
		{
			"sampler":0,
			"source":0
		},
		{
			"sampler":0,
			"source":1
		},
		{
			"sampler":0,
			"source":2
		}
	],
	"images":[
		{
			"mimeType":"image/jpeg",
			"name":"Grass004_2K-JPG_NormalGL",
			"uri":"../textures/Grass004_2K-JPG_NormalGL.jpg"
		},
		{
			"mimeType":"image/jpeg",
			"name":"Grass004_2K-JPG_Color",
			"uri":"../textures/Grass004_2K-JPG_Color.jpg"
		},
		{
			"mimeType":"image/png",
			"name":"Grass004_2K-JPG_Roughness",
			"uri":"../textures/Grass004_2K-JPG_Roughness.png"
		}
	],
	"accessors":[
		{
			"bufferView":0,
			"componentType":5126,
			"count":615,
			"max":[
				7.881091117858887,
				1.8072038888931274,
				8.984999656677246
			],
			"min":[
				-9.017623901367188,
				-0.0059895566664636135,
				-8.984999656677246
			],
			"type":"VEC3"
		},
		{
			"bufferView":1,
			"componentType":5126,
			"count":615,
			"type":"VEC3"
		},
		{
			"bufferView":2,
			"componentType":5126,
			"count":615,
			"type":"VEC2"
		},
		{
			"bufferView":3,
			"componentType":5123,
			"count":1164,
			"type":"SCALAR"
		}
	],
	"bufferViews":[
		{
			"buffer":0,
			"byteLength":7380,
			"byteOffset":0,
			"target":34962
		},
		{
			"buffer":0,
			"byteLength":7380,
			"byteOffset":7380,
			"target":34962
		},
		{
			"buffer":0,
			"byteLength":4920,
			"byteOffset":14760,
			"target":34962
		},
		{
			"buffer":0,
			"byteLength":2328,
			"byteOffset":19680,
			"target":34963
		}
	],
	"samplers":[
		{
			"magFilter":9729,
			"minFilter":9987
		}
	],
	"buffers":[
		{
			"byteLength":22008,
			"uri":"plane.bin"
		}
	]
}
