{
	"asset":{
		"generator":"Khronos glTF Blender I/O v4.3.47",
		"version":"2.0"
	},
	"extensionsUsed":[
		"KHR_texture_transform"
	],
	"extensionsRequired":[
		"KHR_texture_transform"
	],
	"scene":0,
	"scenes":[
		{
			"name":"Scene",
			"nodes":[
				2,
				5,
				8
			]
		}
	],
	"nodes":[
		{
			"mesh":0,
			"name":"Mesh_0",
			"translation":[
				0,
				0,
				-3.0517578125e-05
			]
		},
		{
			"mesh":1,
			"name":"Mesh_1",
			"translation":[
				0,
				0,
				-3.0517578125e-05
			]
		},
		{
			"children":[
				0,
				1
			],
			"name":"Tree",
			"scale":[
				0.026707114651799202,
				0.026707114651799202,
				0.026707114651799202
			],
			"translation":[
				-7.0432538986206055,
				0,
				-5.918743133544922
			]
		},
		{
			"mesh":2,
			"name":"Mesh_0.002"
		},
		{
			"mesh":3,
			"name":"Mesh_1.002"
		},
		{
			"children":[
				3,
				4
			],
			"name":"Tree.002",
			"scale":[
				0.038853030651807785,
				0.038853030651807785,
				0.038853030651807785
			],
			"translation":[
				6.872236251831055,
				0,
				-1.2377190589904785
			]
		},
		{
			"mesh":4,
			"name":"Mesh_0.001",
			"translation":[
				-1.9073486328125e-05,
				0,
				-3.814697265625e-06
			]
		},
		{
			"mesh":5,
			"name":"Mesh_1.001",
			"translation":[
				-1.9073486328125e-05,
				0,
				-3.814697265625e-06
			]
		},
		{
			"children":[
				6,
				7
			],
			"name":"Tree.001",
			"rotation":[
				0,
				-0.9041620492935181,
				0,
				0.4271896779537201
			],
			"scale":[
				0.026707123965024948,
				0.026707114651799202,
				0.026707123965024948
			],
			"translation":[
				-2.1787962913513184,
				0,
				9.031326293945312
			]
		}
	],
	"materials":[
		{
			"name":"branches",
			"normalTexture":{
				"extensions":{
					"KHR_texture_transform":{
						"offset":[
							0,
							-1.4901161193847656e-08
						],
						"scale":[
							0.5,
							0.20000000298023224
						]
					}
				},
				"index":0
			},
			"occlusionTexture":{
				"extensions":{
					"KHR_texture_transform":{
						"offset":[
							0,
							-1.4901161193847656e-08
						],
						"scale":[
							0.5,
							0.20000000298023224
						]
					}
				},
				"index":1
			},
			"pbrMetallicRoughness":{
				"baseColorFactor":[
					0.6172065734863281,
					0.6038273572921753,
					0.5149176716804504,
					1
				],
				"baseColorTexture":{
					"extensions":{
						"KHR_texture_transform":{
							"offset":[
								0,
								-1.4901161193847656e-08
							],
							"scale":[
								0.5,
								0.20000000298023224
							]
						}
					},
					"index":2
				},
				"metallicFactor":0.5,
				"metallicRoughnessTexture":{
					"extensions":{
						"KHR_texture_transform":{
							"offset":[
								0,
								-1.4901161193847656e-08
							],
							"scale":[
								0.5,
								0.20000000298023224
							]
						}
					},
					"index":1
				},
				"roughnessFactor":0.5
			}
		},
		{
			"alphaMode":"MASK",
			"doubleSided":true,
			"name":"leaves",
			"pbrMetallicRoughness":{
				"baseColorTexture":{
					"index":3
				},
				"metallicFactor":0.5,
				"roughnessFactor":0.5
			}
		},
		{
			"name":"branches.002",
			"normalTexture":{
				"extensions":{
					"KHR_texture_transform":{
						"offset":[
							0,
							-1.4901161193847656e-08
						],
						"scale":[
							1,
							0.20000000298023224
						]
					}
				},
				"index":4
			},
			"occlusionTexture":{
				"extensions":{
					"KHR_texture_transform":{
						"offset":[
							0,
							-1.4901161193847656e-08
						],
						"scale":[
							1,
							0.20000000298023224
						]
					}
				},
				"index":5
			},
			"pbrMetallicRoughness":{
				"baseColorFactor":[
					1,
					0.8962693810462952,
					0.637596845626831,
					1
				],
				"baseColorTexture":{
					"extensions":{
						"KHR_texture_transform":{
							"offset":[
								0,
								-1.4901161193847656e-08
							],
							"scale":[
								1,
								0.20000000298023224
							]
						}
					},
					"index":6
				},
				"metallicFactor":0.5,
				"metallicRoughnessTexture":{
					"extensions":{
						"KHR_texture_transform":{
							"offset":[
								0,
								-1.4901161193847656e-08
							],
							"scale":[
								1,
								0.20000000298023224
							]
						}
					},
					"index":5
				},
				"roughnessFactor":0.5
			}
		},
		{
			"alphaMode":"MASK",
			"doubleSided":true,
			"name":"leaves.002",
			"pbrMetallicRoughness":{
				"baseColorFactor":[
					0.6653872728347778,
					0.6653872728347778,
					0.6104955673217773,
					1
				],
				"baseColorTexture":{
					"index":7
				},
				"metallicFactor":0.5,
				"roughnessFactor":0.5
			}
		},
		{
			"name":"branches.004",
			"normalTexture":{
				"extensions":{
					"KHR_texture_transform":{
						"offset":[
							0,
							-1.4901161193847656e-08
						],
						"scale":[
							0.5,
							0.20000000298023224
						]
					}
				},
				"index":8
			},
			"occlusionTexture":{
				"extensions":{
					"KHR_texture_transform":{
						"offset":[
							0,
							-1.4901161193847656e-08
						],
						"scale":[
							0.5,
							0.20000000298023224
						]
					}
				},
				"index":9
			},
			"pbrMetallicRoughness":{
				"baseColorFactor":[
					0.6172065734863281,
					0.6038273572921753,
					0.5149176716804504,
					1
				],
				"baseColorTexture":{
					"extensions":{
						"KHR_texture_transform":{
							"offset":[
								0,
								-1.4901161193847656e-08
							],
							"scale":[
								0.5,
								0.20000000298023224
							]
						}
					},
					"index":10
				},
				"metallicFactor":0.5,
				"metallicRoughnessTexture":{
					"extensions":{
						"KHR_texture_transform":{
							"offset":[
								0,
								-1.4901161193847656e-08
							],
							"scale":[
								0.5,
								0.20000000298023224
							]
						}
					},
					"index":9
				},
				"roughnessFactor":0.5
			}
		},
		{
			"alphaMode":"MASK",
			"doubleSided":true,
			"name":"leaves.004",
			"pbrMetallicRoughness":{
				"baseColorTexture":{
					"index":11
				},
				"metallicFactor":0.5,
				"roughnessFactor":0.5
			}
		}
	],
	"meshes":[
		{
			"name":"Mesh_0",
			"primitives":[
				{
					"attributes":{
						"POSITION":0,
						"NORMAL":1,
						"TEXCOORD_0":2
					},
					"indices":3,
					"material":0
				}
			]
		},
		{
			"name":"Mesh_1",
			"primitives":[
				{
					"attributes":{
						"POSITION":4,
						"NORMAL":5,
						"TEXCOORD_0":6
					},
					"indices":7,
					"material":1
				}
			]
		},
		{
			"name":"Mesh_0.002",
			"primitives":[
				{
					"attributes":{
						"POSITION":8,
						"NORMAL":9,
						"TEXCOORD_0":10
					},
					"indices":11,
					"material":2
				}
			]
		},
		{
			"name":"Mesh_1.002",
			"primitives":[
				{
					"attributes":{
						"POSITION":12,
						"NORMAL":13,
						"TEXCOORD_0":14
					},
					"indices":15,
					"material":3
				}
			]
		},
		{
			"name":"Mesh_0.004",
			"primitives":[
				{
					"attributes":{
						"POSITION":16,
						"NORMAL":17,
						"TEXCOORD_0":18
					},
					"indices":3,
					"material":4
				}
			]
		},
		{
			"name":"Mesh_1.004",
			"primitives":[
				{
					"attributes":{
						"POSITION":19,
						"NORMAL":20,
						"TEXCOORD_0":21
					},
					"indices":7,
					"material":5
				}
			]
		}
	],
	"textures":[
		{
			"sampler":0,
			"source":0
		},
		{
			"sampler":0,
			"source":1
		},
		{
			"sampler":0,
			"source":2
		},
		{
			"sampler":1,
			"source":3
		},
		{
			"sampler":0,
			"source":0
		},
		{
			"sampler":0,
			"source":1
		},
		{
			"sampler":0,
			"source":2
		},
		{
			"sampler":1,
			"source":4
		},
		{
			"sampler":0,
			"source":0
		},
		{
			"sampler":0,
			"source":1
		},
		{
			"sampler":0,
			"source":2
		},
		{
			"sampler":1,
			"source":3
		}
	],
	"images":[
		{
			"mimeType":"image/png",
			"name":"Image_2",
			"uri":"../textures/Image_2.png"
		},
		{
			"mimeType":"image/png",
			"name":"Image_3-Image_0",
			"uri":"../textures/Image_3-Image_0.png"
		},
		{
			"mimeType":"image/png",
			"name":"Image_1",
			"uri":"../textures/Image_1.png"
		},
		{
			"mimeType":"image/png",
			"name":"Image_4",
			"uri":"../textures/Image_4.png"
		},
		{
			"mimeType":"image/png",
			"name":"Image_4",
			"uri":"../textures/Image_4-1.png"
		}
	],
	"accessors":[
		{
			"bufferView":0,
			"componentType":5126,
			"count":8738,
			"max":[
				32.65094757080078,
				87.67352294921875,
				38.968605041503906
			],
			"min":[
				-34.048160552978516,
				0,
				-34.399200439453125
			],
			"type":"VEC3"
		},
		{
			"bufferView":1,
			"componentType":5126,
			"count":8738,
			"type":"VEC3"
		},
		{
			"bufferView":2,
			"componentType":5126,
			"count":8738,
			"type":"VEC2"
		},
		{
			"bufferView":3,
			"componentType":5123,
			"count":35496,
			"type":"SCALAR"
		},
		{
			"bufferView":4,
			"componentType":5126,
			"count":19620,
			"max":[
				39.56846618652344,
				95.97171020507812,
				44.92682647705078
			],
			"min":[
				-39.598182678222656,
				20.084030151367188,
				-40.221988677978516
			],
			"type":"VEC3"
		},
		{
			"bufferView":5,
			"componentType":5126,
			"count":19620,
			"type":"VEC3"
		},
		{
			"bufferView":6,
			"componentType":5126,
			"count":19620,
			"type":"VEC2"
		},
		{
			"bufferView":7,
			"componentType":5123,
			"count":29040,
			"type":"SCALAR"
		},
		{
			"bufferView":8,
			"componentType":5126,
			"count":2780,
			"max":[
				19.19047737121582,
				61.02412414550781,
				25.791109085083008
			],
			"min":[
				-27.04022979736328,
				0,
				-21.90778160095215
			],
			"type":"VEC3"
		},
		{
			"bufferView":9,
			"componentType":5126,
			"count":2780,
			"type":"VEC3"
		},
		{
			"bufferView":10,
			"componentType":5126,
			"count":2780,
			"type":"VEC2"
		},
		{
			"bufferView":11,
			"componentType":5123,
			"count":9498,
			"type":"SCALAR"
		},
		{
			"bufferView":12,
			"componentType":5126,
			"count":21594,
			"max":[
				22.729259490966797,
				64.73231506347656,
				29.074329376220703
			],
			"min":[
				-29.900968551635742,
				8.632194519042969,
				-24.45872688293457
			],
			"type":"VEC3"
		},
		{
			"bufferView":13,
			"componentType":5126,
			"count":21594,
			"type":"VEC3"
		},
		{
			"bufferView":14,
			"componentType":5126,
			"count":21594,
			"type":"VEC2"
		},
		{
			"bufferView":15,
			"componentType":5123,
			"count":31920,
			"type":"SCALAR"
		},
		{
			"bufferView":16,
			"componentType":5126,
			"count":8738,
			"max":[
				32.65094757080078,
				87.67352294921875,
				38.968605041503906
			],
			"min":[
				-34.048160552978516,
				0,
				-34.399200439453125
			],
			"type":"VEC3"
		},
		{
			"bufferView":17,
			"componentType":5126,
			"count":8738,
			"type":"VEC3"
		},
		{
			"bufferView":18,
			"componentType":5126,
			"count":8738,
			"type":"VEC2"
		},
		{
			"bufferView":19,
			"componentType":5126,
			"count":19620,
			"max":[
				39.56846618652344,
				95.97171020507812,
				44.92682647705078
			],
			"min":[
				-39.598182678222656,
				20.084030151367188,
				-40.221988677978516
			],
			"type":"VEC3"
		},
		{
			"bufferView":20,
			"componentType":5126,
			"count":19620,
			"type":"VEC3"
		},
		{
			"bufferView":21,
			"componentType":5126,
			"count":19620,
			"type":"VEC2"
		}
	],
	"bufferViews":[
		{
			"buffer":0,
			"byteLength":104856,
			"byteOffset":0,
			"target":34962
		},
		{
			"buffer":0,
			"byteLength":104856,
			"byteOffset":104856,
			"target":34962
		},
		{
			"buffer":0,
			"byteLength":69904,
			"byteOffset":209712,
			"target":34962
		},
		{
			"buffer":0,
			"byteLength":70992,
			"byteOffset":279616,
			"target":34963
		},
		{
			"buffer":0,
			"byteLength":235440,
			"byteOffset":350608,
			"target":34962
		},
		{
			"buffer":0,
			"byteLength":235440,
			"byteOffset":586048,
			"target":34962
		},
		{
			"buffer":0,
			"byteLength":156960,
			"byteOffset":821488,
			"target":34962
		},
		{
			"buffer":0,
			"byteLength":58080,
			"byteOffset":978448,
			"target":34963
		},
		{
			"buffer":0,
			"byteLength":33360,
			"byteOffset":1036528,
			"target":34962
		},
		{
			"buffer":0,
			"byteLength":33360,
			"byteOffset":1069888,
			"target":34962
		},
		{
			"buffer":0,
			"byteLength":22240,
			"byteOffset":1103248,
			"target":34962
		},
		{
			"buffer":0,
			"byteLength":18996,
			"byteOffset":1125488,
			"target":34963
		},
		{
			"buffer":0,
			"byteLength":259128,
			"byteOffset":1144484,
			"target":34962
		},
		{
			"buffer":0,
			"byteLength":259128,
			"byteOffset":1403612,
			"target":34962
		},
		{
			"buffer":0,
			"byteLength":172752,
			"byteOffset":1662740,
			"target":34962
		},
		{
			"buffer":0,
			"byteLength":63840,
			"byteOffset":1835492,
			"target":34963
		},
		{
			"buffer":0,
			"byteLength":104856,
			"byteOffset":1899332,
			"target":34962
		},
		{
			"buffer":0,
			"byteLength":104856,
			"byteOffset":2004188,
			"target":34962
		},
		{
			"buffer":0,
			"byteLength":69904,
			"byteOffset":2109044,
			"target":34962
		},
		{
			"buffer":0,
			"byteLength":235440,
			"byteOffset":2178948,
			"target":34962
		},
		{
			"buffer":0,
			"byteLength":235440,
			"byteOffset":2414388,
			"target":34962
		},
		{
			"buffer":0,
			"byteLength":156960,
			"byteOffset":2649828,
			"target":34962
		}
	],
	"samplers":[
		{
			"magFilter":9729,
			"minFilter":9987
		},
		{
			"magFilter":9729,
			"minFilter":9987,
			"wrapS":33071,
			"wrapT":33071
		}
	],
	"buffers":[
		{
			"byteLength":2806788,
			"uri":"plantation.bin"
		}
	]
}
