{
	"asset":{
		"generator":"Khronos glTF Blender I/O v4.3.47",
		"version":"2.0"
	},
	"scene":0,
	"scenes":[
		{
			"name":"Scene",
			"nodes":[
				0,
				1
			]
		}
	],
	"nodes":[
		{
			"mesh":0,
			"name":"Mesh",
			"translation":[
				0,
				0.018970631062984467,
				0
			]
		},
		{
			"mesh":1,
			"name":"Mesh.001"
		}
	],
	"materials":[
		{
			"doubleSided":true,
			"name":"Material.003",
			"normalTexture":{
				"index":0
			},
			"pbrMetallicRoughness":{
				"baseColorTexture":{
					"index":1
				},
				"metallicFactor":0,
				"metallicRoughnessTexture":{
					"index":2
				}
			}
		}
	],
	"meshes":[
		{
			"name":"Mesh.001",
			"primitives":[
				{
					"attributes":{
						"POSITION":0,
						"NORMAL":1,
						"TEXCOORD_0":2
					},
					"indices":3,
					"material":0
				}
			]
		},
		{
			"name":"Mesh.003",
			"primitives":[
				{
					"attributes":{
						"POSITION":4,
						"NORMAL":5,
						"TEXCOORD_0":6
					},
					"indices":7,
					"material":0
				}
			]
		}
	],
	"textures":[
		{
			"sampler":0,
			"source":0
		},
		{
			"sampler":0,
			"source":1
		},
		{
			"sampler":0,
			"source":2
		}
	],
	"images":[
		{
			"mimeType":"image/png",
			"name":"thatch_roof_angled_nor_gl_1k",
			"uri":"../textures/thatch_roof_angled_nor_gl_1k.png"
		},
		{
			"mimeType":"image/jpeg",
			"name":"thatch_roof_angled_diff_1k",
			"uri":"../textures/thatch_roof_angled_diff_1k.jpg"
		},
		{
			"mimeType":"image/png",
			"name":"thatch_roof_angled_rough_1k",
			"uri":"../textures/thatch_roof_angled_rough_1k.png"
		}
	],
	"accessors":[
		{
			"bufferView":0,
			"componentType":5126,
			"count":751872,
			"max":[
				0.565037190914154,
				0.8443712592124939,
				1.0646334886550903
			],
			"min":[
				-0.149795800447464,
				0.633161187171936,
				0.6750953197479248
			],
			"type":"VEC3"
		},
		{
			"bufferView":1,
			"componentType":5126,
			"count":751872,
			"type":"VEC3"
		},
		{
			"bufferView":2,
			"componentType":5126,
			"count":751872,
			"type":"VEC2"
		},
		{
			"bufferView":3,
			"componentType":5125,
			"count":1127808,
			"type":"SCALAR"
		},
		{
			"bufferView":4,
			"componentType":5126,
			"count":468000,
			"max":[
				0.8693559169769287,
				1.284069299697876,
				0.8708653450012207
			],
			"min":[
				-0.9330202341079712,
				0.5773834586143494,
				-1.0408810377120972
			],
			"type":"VEC3"
		},
		{
			"bufferView":5,
			"componentType":5126,
			"count":468000,
			"type":"VEC3"
		},
		{
			"bufferView":6,
			"componentType":5126,
			"count":468000,
			"type":"VEC2"
		},
		{
			"bufferView":7,
			"componentType":5125,
			"count":1728000,
			"type":"SCALAR"
		}
	],
	"bufferViews":[
		{
			"buffer":0,
			"byteLength":9022464,
			"byteOffset":0,
			"target":34962
		},
		{
			"buffer":0,
			"byteLength":9022464,
			"byteOffset":9022464,
			"target":34962
		},
		{
			"buffer":0,
			"byteLength":6014976,
			"byteOffset":18044928,
			"target":34962
		},
		{
			"buffer":0,
			"byteLength":4511232,
			"byteOffset":24059904,
			"target":34963
		},
		{
			"buffer":0,
			"byteLength":5616000,
			"byteOffset":28571136,
			"target":34962
		},
		{
			"buffer":0,
			"byteLength":5616000,
			"byteOffset":34187136,
			"target":34962
		},
		{
			"buffer":0,
			"byteLength":3744000,
			"byteOffset":39803136,
			"target":34962
		},
		{
			"buffer":0,
			"byteLength":6912000,
			"byteOffset":43547136,
			"target":34963
		}
	],
	"samplers":[
		{
			"magFilter":9729,
			"minFilter":9987
		}
	],
	"buffers":[
		{
			"byteLength":50459136,
			"uri":"serabutatap.bin"
		}
	]
}
